<?xml version="1.0" standalone="no"?>
<!DOCTYPE svg PUBLIC "-//W3C//DTD SVG 20010904//EN"
 "http://www.w3.org/TR/2001/REC-SVG-20010904/DTD/svg10.dtd">
<svg version="1.0" xmlns="http://www.w3.org/2000/svg"
 width="568.000000pt" height="117.000000pt" viewBox="0 0 568.000000 117.000000"
 preserveAspectRatio="xMidYMid meet">

<g transform="translate(0.000000,117.000000) scale(0.100000,-0.100000)"
fill="#000000" stroke="none">
<path d="M4865 1097 c-61 -61 -53 -154 17 -197 86 -52 191 8 191 110 0 72 -53
120 -131 120 -36 0 -50 -6 -77 -33z"/>
<path d="M5127 1114 c-4 -4 -7 -54 -7 -111 l0 -103 110 0 111 0 -3 108 -3 107
-101 3 c-55 1 -103 0 -107 -4z m203 -104 l0 -100 -100 0 -100 0 0 100 0 100
100 0 100 0 0 -100z"/>
<path d="M5140 1010 l0 -90 90 0 90 0 0 90 0 90 -90 0 -90 0 0 -90z m168 -2
l3 -78 -81 0 -80 0 0 80 0 81 78 -3 77 -3 3 -77z"/>
<path d="M5400 1113 c0 -4 47 -7 105 -5 l104 3 4 -108 3 -108 0 110 -1 110
-107 3 c-60 1 -108 -1 -108 -5z"/>
<path d="M5420 1010 l0 -90 90 0 90 0 0 90 0 90 -90 0 -90 0 0 -90z m168 -2
l3 -78 -81 0 -80 0 0 80 0 81 78 -3 77 -3 3 -77z"/>
<path d="M443 1061 c-209 -60 -353 -252 -353 -470 1 -138 37 -235 126 -331 66
-71 128 -111 214 -140 54 -18 82 -21 170 -18 97 3 111 6 183 40 313 149 386
550 143 792 -128 127 -312 176 -483 127z m127 -27 c0 -8 -4 -12 -10 -9 -15 10
-50 -14 -50 -34 0 -26 25 -44 50 -36 11 4 29 24 40 45 22 43 31 52 46 42 9 -6
34 -85 34 -106 0 -13 -28 -5 -34 9 -7 19 -35 20 -42 2 -6 -18 -88 -21 -102 -5
-22 28 -22 55 -1 81 23 30 69 37 69 11z m-97 -66 c14 -44 14 -58 -4 -58 -10 0
-39 101 -32 113 8 13 19 -3 36 -55z m-77 16 c-22 -16 -13 -34 14 -27 23 6 27
-12 5 -21 -12 -4 -14 -10 -5 -25 7 -14 7 -22 -1 -26 -13 -8 -12 -10 -38 42
-26 53 -26 58 2 70 28 13 45 4 23 -13z m397 -23 l-2 -42 29 21 c57 41 73 17
30 -45 -32 -46 -65 -55 -36 -9 23 34 20 38 -10 15 -39 -31 -47 -27 -40 22 l6
42 -17 -27 c-19 -30 -33 -36 -33 -15 0 21 51 88 63 84 7 -2 11 -21 10 -46z
m-439 -44 c21 -26 27 -40 19 -48 -7 -7 -20 3 -42 32 -51 70 -32 83 23 16z
m-68 -4 c-4 -11 4 -27 25 -49 42 -43 19 -58 -25 -15 -25 24 -35 28 -44 19 -6
-6 -15 -9 -19 -5 -7 8 45 67 60 67 5 0 6 -8 3 -17z m430 -28 c116 -52 184
-151 192 -278 8 -130 -25 -186 -191 -332 -33 -29 -39 -31 -31 -10 5 12 1 13
-26 4 -18 -7 -62 -9 -99 -7 -193 14 -336 195 -300 381 40 213 261 330 455 242z
m169 -25 c-26 -27 -42 -37 -49 -30 -7 7 3 23 29 50 26 27 42 37 49 30 7 -7 -3
-23 -29 -50z m70 0 c3 -5 -1 -23 -10 -41 -20 -38 -14 -46 18 -24 16 10 27 12
31 6 9 -13 -86 -73 -97 -62 -5 5 -1 25 7 46 21 49 20 50 -9 31 -27 -18 -45
-21 -45 -7 0 10 78 61 92 61 4 0 10 -4 13 -10z m-731 -16 c9 -3 16 -12 16 -20
0 -9 11 -14 31 -14 39 0 34 -23 -7 -30 -26 -5 -27 -7 -10 -17 11 -6 16 -15 12
-22 -6 -9 -21 -4 -54 15 -26 15 -49 28 -51 30 -3 3 38 64 44 64 2 0 10 -3 19
-6z m-56 -116 c-2 -11 3 -23 10 -25 6 -3 12 2 12 11 0 9 5 16 10 16 6 0 10 -9
10 -20 0 -25 9 -25 26 -3 16 23 24 15 17 -20 -5 -27 -8 -28 -40 -22 -20 3 -46
10 -59 15 -21 8 -22 12 -13 40 12 34 32 41 27 8z m860 -29 c3 -15 -70 -79 -90
-79 -12 0 -9 28 3 32 16 5 1 48 -17 48 -8 0 -14 5 -14 10 0 7 22 10 57 8 44
-2 59 -7 61 -19z m-882 -54 c-10 -26 5 -45 35 -45 27 0 35 11 30 43 0 4 6 7
14 7 20 0 19 -39 -2 -62 -20 -22 -61 -23 -85 -1 -23 21 -25 73 -2 73 10 0 14
-6 10 -15z m806 -60 c-6 -33 7 -32 34 3 19 22 26 25 41 16 24 -15 30 -64 8
-64 -9 0 -13 5 -10 10 3 6 3 15 -1 21 -4 7 -15 1 -30 -17 -19 -24 -26 -27 -41
-18 -23 14 -31 74 -10 74 10 0 13 -8 9 -25z m-481 -345 c28 -16 23 -30 -9 -24
-50 10 -71 -50 -22 -63 26 -7 26 -23 0 -23 -30 0 -62 37 -55 63 7 23 41 57 57
57 5 0 18 -5 29 -10z m259 1 c0 -5 -7 -11 -15 -15 -22 -8 -18 -26 5 -26 11 0
20 -4 20 -10 0 -5 -7 -10 -15 -10 -8 0 -15 -6 -15 -14 0 -9 7 -12 19 -9 10 3
22 0 25 -5 8 -13 -53 -27 -64 -16 -5 5 -11 30 -15 56 -6 40 -4 47 12 51 31 8
43 7 43 -2z m-171 -52 c7 -23 15 -47 18 -55 3 -8 -1 -14 -11 -14 -9 0 -16 5
-16 10 0 6 -11 10 -25 10 -14 0 -25 -4 -25 -10 0 -5 -7 -10 -16 -10 -9 0 -14
6 -11 13 34 85 41 97 57 97 11 0 21 -14 29 -41z m96 31 c-3 -5 -13 -10 -21
-10 -23 0 -16 -28 9 -33 l22 -4 -22 -8 c-13 -4 -23 -16 -23 -26 0 -11 -7 -19
-15 -19 -12 0 -15 13 -15 55 l0 55 36 0 c21 0 33 -4 29 -10z"/>
<path d="M626 1001 c-4 -7 -5 -15 -2 -18 9 -9 19 4 14 18 -4 11 -6 11 -12 0z"/>
<path d="M573 788 c-6 -18 -20 -56 -31 -84 l-20 -51 51 4 c61 5 111 -20 128
-63 13 -35 4 -58 -34 -90 -28 -23 -37 -26 -93 -22 -41 3 -70 10 -82 21 -19 17
-20 16 -36 -23 -9 -22 -16 -43 -16 -45 0 -3 88 -5 195 -5 107 0 195 3 195 6 0
8 -218 354 -235 372 -9 10 -14 6 -22 -20z"/>
<path d="M510 723 c-19 -27 -58 -81 -87 -120 l-54 -73 -35 15 -34 14 52 -59
c29 -33 55 -60 58 -60 10 0 44 104 42 126 -2 12 8 34 21 50 21 24 82 154 73
154 -1 0 -18 -21 -36 -47z"/>
<path d="M504 616 l-28 -23 65 -12 c132 -22 172 -9 113 38 -39 30 -114 29
-150 -3z"/>
<path d="M476 571 c-3 -4 4 -21 14 -39 33 -54 139 -57 181 -4 l21 27 -89 7
c-48 4 -96 9 -105 12 -10 2 -20 1 -22 -3z"/>
<path d="M197 814 c-8 -8 1 -24 14 -24 5 0 9 7 9 15 0 15 -12 20 -23 9z"/>
<path d="M970 680 c0 -5 7 -7 15 -4 8 4 15 8 15 10 0 2 -7 4 -15 4 -8 0 -15
-4 -15 -10z"/>
<path d="M520 183 c0 -13 5 -23 10 -23 13 0 13 11 0 30 -8 12 -10 11 -10 -7z"/>
<path d="M245 1060 c-3 -6 1 -7 9 -4 18 7 21 14 7 14 -6 0 -13 -4 -16 -10z"/>
<path d="M2368 913 l-98 -98 -62 60 c-35 33 -80 76 -100 95 l-38 34 0 -237 0
-237 35 0 35 0 0 152 0 151 59 -56 c33 -32 63 -57 68 -57 5 0 33 25 63 55 30
30 58 55 62 55 4 0 8 -67 8 -150 l0 -150 35 0 35 0 0 240 c0 132 -1 240 -3
240 -1 0 -46 -44 -99 -97z"/>
<path d="M1710 765 l0 -235 135 0 135 0 0 35 0 34 -97 3 -98 3 0 65 0 65 88 3
88 3 -3 32 -3 32 -87 3 -88 3 0 59 0 60 100 0 100 0 0 35 0 35 -135 0 -135 0
0 -235z"/>
<path d="M3100 970 l0 -30 75 0 75 0 0 -205 0 -205 35 0 35 0 2 203 3 202 78
3 77 3 0 29 0 30 -190 0 -190 0 0 -30z"/>
<path d="M3558 765 l3 -235 134 0 135 0 0 30 0 30 -100 0 -100 0 0 75 0 75 85
0 85 0 0 30 0 30 -85 0 -85 0 0 70 0 70 95 0 95 0 0 30 0 30 -132 0 -133 0 3
-235z"/>
<path d="M3910 765 l0 -235 35 0 35 0 0 100 0 100 33 0 c29 0 35 -6 67 -67 19
-37 45 -79 58 -94 21 -26 77 -48 89 -35 3 3 -20 48 -51 101 -56 97 -64 115
-47 115 5 0 23 13 39 30 38 38 47 86 26 139 -24 60 -74 81 -192 81 l-92 0 0
-235z m200 145 c25 -25 25 -51 2 -80 -14 -18 -32 -24 -75 -28 l-57 -4 0 66 0
66 55 0 c42 0 60 -5 75 -20z"/>
<path d="M2948 957 c-15 -32 -15 -33 71 -227 86 -195 86 -195 120 -198 25 -3
32 0 28 10 -33 80 -191 435 -196 441 -4 4 -14 -8 -23 -26z"/>
<path d="M1056 907 c3 -10 9 -15 12 -12 3 3 0 11 -7 18 -10 9 -11 8 -5 -6z"/>
<path d="M5463 903 c26 -2 68 -2 95 0 26 2 4 3 -48 3 -52 0 -74 -1 -47 -3z"/>
<path d="M90 891 c0 -6 4 -13 10 -16 6 -3 7 1 4 9 -7 18 -14 21 -14 7z"/>
<path d="M4844 827 c-2 -7 -3 -58 -1 -113 l3 -99 2 108 2 107 100 0 100 0 0
-100 0 -99 -97 -4 -98 -3 103 -2 103 -2 -3 108 -3 107 -103 3 c-79 2 -104 0
-108 -11z"/>
<path d="M5124 827 c-2 -7 -3 -58 -1 -113 l3 -99 2 108 2 107 100 0 100 0 0
-100 0 -99 -97 -4 -98 -3 103 -2 103 -2 -3 108 -3 107 -103 3 c-79 2 -104 0
-108 -11z"/>
<path d="M2877 799 c-16 -36 -16 -37 35 -153 51 -114 53 -116 85 -116 l32 0
-33 78 c-18 42 -49 111 -68 152 l-36 75 -15 -36z"/>
<path d="M4860 730 l0 -90 90 0 90 0 0 90 0 90 -90 0 -90 0 0 -90z m168 -2 l3
-78 -81 0 -80 0 0 80 0 81 78 -3 77 -3 3 -77z"/>
<path d="M5140 730 l0 -90 90 0 90 0 0 90 0 90 -90 0 -90 0 0 -90z m168 -2 l3
-78 -81 0 -80 0 0 80 0 81 78 -3 77 -3 3 -77z"/>
<path d="M2842 565 c-16 -35 -16 -35 18 -35 17 0 30 2 30 5 0 11 -24 55 -30
55 -4 0 -12 -11 -18 -25z"/>
<path d="M4847 554 c-4 -4 -7 -54 -7 -111 l0 -103 110 0 111 0 -3 108 -3 107
-101 3 c-55 1 -103 0 -107 -4z m203 -104 l0 -100 -100 0 -100 0 0 100 0 100
100 0 100 0 0 -100z"/>
<path d="M4860 450 l0 -90 90 0 90 0 0 90 0 90 -90 0 -90 0 0 -90z m168 -2 l3
-78 -81 0 -80 0 0 80 0 81 78 -3 77 -3 3 -77z"/>
<path d="M5120 450 l0 -110 110 0 111 0 -3 108 -3 107 -107 3 -108 3 0 -111z
m210 0 l0 -100 -100 0 -100 0 0 100 0 100 100 0 100 0 0 -100z"/>
<path d="M5140 450 l0 -90 90 0 90 0 0 90 0 90 -90 0 -90 0 0 -90z m168 -2 l3
-78 -81 0 -80 0 0 80 0 81 78 -3 77 -3 3 -77z"/>
<path d="M5503 553 l107 -4 0 -99 0 -99 -107 -4 -108 -3 113 -2 113 -2 -3 108
-3 107 -110 1 -110 0 108 -3z"/>
<path d="M5420 450 l0 -90 90 0 90 0 0 90 0 90 -90 0 -90 0 0 -90z m168 -2 l3
-78 -81 0 -80 0 0 80 0 81 78 -3 77 -3 3 -77z"/>
<path d="M1128 463 c7 -3 16 -2 19 1 4 3 -2 6 -13 5 -11 0 -14 -3 -6 -6z"/>
<path d="M4840 170 l0 -110 110 0 111 0 -3 108 -3 107 -107 3 -108 3 0 -111z
m210 0 l0 -100 -100 0 -100 0 0 100 0 100 100 0 100 0 0 -100z"/>
<path d="M4860 170 l0 -90 90 0 90 0 0 90 0 90 -90 0 -90 0 0 -90z m168 -2 l3
-78 -81 0 -80 0 0 80 0 81 78 -3 77 -3 3 -77z"/>
<path d="M5120 170 l0 -110 110 0 111 0 -3 108 -3 107 -107 3 -108 3 0 -111z
m210 0 l0 -100 -100 0 -100 0 0 100 0 100 100 0 100 0 0 -100z"/>
<path d="M5140 170 l0 -90 90 0 90 0 0 90 0 90 -90 0 -90 0 0 -90z m168 -2 l3
-78 -81 0 -80 0 0 80 0 81 78 -3 77 -3 3 -77z"/>
</g>
</svg>
