<svg width="150" height="150" viewBox="0 0 150 150" fill="none" xmlns="http://www.w3.org/2000/svg">
<path d="M33.75 122.5C29.0625 117.812 25.3906 112.396 22.7344 106.25C20.0781 100.104 18.75 93.75 18.75 87.1875C18.75 80.625 20 74.1406 22.5 67.7344C25 61.3281 29.0625 55.3125 34.6875 49.6875C38.3333 46.0417 42.8385 42.9167 48.2031 40.3125C53.5677 37.7083 59.9219 35.651 67.2656 34.1406C74.6094 32.6302 82.9948 31.7187 92.4219 31.4062C101.849 31.0937 112.396 31.4583 124.062 32.5C124.896 43.5417 125.156 53.6979 124.844 62.9687C124.531 72.2396 123.672 80.5989 122.266 88.0469C120.859 95.4948 118.88 102.005 116.328 107.578C113.776 113.151 110.625 117.812 106.875 121.562C101.354 127.083 95.4948 131.12 89.2969 133.672C83.099 136.224 76.7708 137.5 70.3125 137.5C63.5417 137.5 56.9271 136.172 50.4688 133.516C44.0104 130.859 38.4375 127.187 33.75 122.5ZM51.25 120C54.2708 121.771 57.3698 123.047 60.5469 123.828C63.724 124.609 66.9792 125 70.3125 125C75.1042 125 79.8438 124.036 84.5312 122.109C89.2188 120.182 93.6979 117.083 97.9688 112.812C99.8438 110.937 101.745 108.307 103.672 104.922C105.599 101.536 107.266 97.1094 108.672 91.6406C110.078 86.1719 111.146 79.5573 111.875 71.7969C112.604 64.0364 112.708 54.7917 112.188 44.0625C107.083 43.8542 101.328 43.776 94.9219 43.8281C88.5156 43.8802 82.1354 44.375 75.7812 45.3125C69.4271 46.25 63.3854 47.7604 57.6562 49.8437C51.9271 51.9271 47.2396 54.7917 43.5938 58.4375C38.9062 63.125 35.6771 67.7604 33.9062 72.3437C32.1354 76.9271 31.25 81.3542 31.25 85.625C31.25 91.7708 32.4219 97.1614 34.7656 101.797C37.1094 106.432 39.1667 109.687 40.9375 111.562C45.3125 103.229 51.0938 95.2344 58.2812 87.5781C65.4688 79.9219 73.8542 73.6458 83.4375 68.75C75.9375 75.3125 69.401 82.7344 63.8281 91.0156C58.2552 99.2969 54.0625 108.958 51.25 120Z" fill="#798C35"/>
</svg>
